<svg width="20" height="20" viewBox="0 0 20 20" fill="none" xmlns="http://www.w3.org/2000/svg">
<path d="M4.16699 13.0886L3.63666 12.5582C3.49601 12.6989 3.41699 12.8896 3.41699 13.0886H4.16699ZM13.0886 4.16699L13.6189 3.63666C13.326 3.34377 12.8511 3.34377 12.5582 3.63666L13.0886 4.16699ZM15.8337 6.91209L16.364 7.44242C16.6569 7.14953 16.6569 6.67465 16.364 6.38176L15.8337 6.91209ZM6.91209 15.8337V16.5837C7.111 16.5837 7.30177 16.5046 7.44242 16.364L6.91209 15.8337ZM4.16699 15.8337H3.41699C3.41699 16.2479 3.75278 16.5837 4.16699 16.5837V15.8337ZM9.65719 15.0837C9.24297 15.0837 8.90719 15.4194 8.90719 15.8337C8.90719 16.2479 9.24297 16.5837 9.65719 16.5837V15.0837ZM15.4905 16.5837C15.9047 16.5837 16.2405 16.2479 16.2405 15.8337C16.2405 15.4194 15.9047 15.0837 15.4905 15.0837V16.5837ZM4.69732 13.6189L13.6189 4.69732L12.5582 3.63666L3.63666 12.5582L4.69732 13.6189ZM12.5582 4.69732L15.3033 7.44242L16.364 6.38176L13.6189 3.63666L12.5582 4.69732ZM15.3033 6.38176L6.38176 15.3033L7.44242 16.364L16.364 7.44242L15.3033 6.38176ZM6.91209 15.0837H4.16699V16.5837H6.91209V15.0837ZM4.91699 15.8337V13.0886H3.41699V15.8337H4.91699ZM10.4994 6.75615L13.2445 9.50124L14.3052 8.44058L11.5601 5.69549L10.4994 6.75615ZM9.65719 16.5837H15.4905V15.0837H9.65719V16.5837Z" />
</svg>
