<svg width="16" height="7" viewBox="0 0 16 7" fill="none" xmlns="http://www.w3.org/2000/svg">
<path d="M15.6718 2.48277L13.8785 0.167694C13.7226 -0.0299349 13.4367 -0.0581673 13.2288 0.111229C13.0468 0.280625 13.0209 0.591184 13.1768 0.817045L14.8661 2.99096H0.467815C0.207918 2.99096 0 3.21682 0 3.49915C0 3.78148 0.207918 4.00734 0.467815 4.00734H14.8661L13.1768 6.18125C13.0209 6.37888 13.0468 6.68944 13.2288 6.88707C13.3067 6.97177 13.4107 7 13.5147 7C13.6446 7 13.7746 6.94354 13.8525 6.8306L15.6458 4.51553C16.1136 3.89441 16.1136 3.04743 15.6718 2.48277Z" fill="#54ADFF"/>
</svg>
