<svg width="16" height="7" viewBox="0 0 16 7" fill="none" xmlns="http://www.w3.org/2000/svg">
<path d="M0.32819 4.51723L2.12148 6.83231C2.27742 7.02994 2.56331 7.05817 2.77122 6.88877C2.95315 6.71938 2.97914 6.40882 2.8232 6.18296L1.13387 4.00904L15.5322 4.00904C15.7921 4.00904 16 3.78318 16 3.50085C16 3.21852 15.7921 2.99266 15.5322 2.99266L1.13387 2.99266L2.8232 0.818749C2.97914 0.62112 2.95315 0.310561 2.77122 0.112932C2.69326 0.0282342 2.5893 6.95564e-07 2.48534 7.04652e-07C2.35539 7.16013e-07 2.22544 0.0564659 2.14747 0.169397L0.354179 2.48448C-0.113636 3.10559 -0.113636 3.95258 0.32819 4.51723Z" fill="#54ADFF"/>
</svg>
